<?xml version="1.0" standalone="no"?>
<!DOCTYPE svg PUBLIC "-//W3C//DTD SVG 20010904//EN"
 "http://www.w3.org/TR/2001/REC-SVG-20010904/DTD/svg10.dtd">
<svg version="1.0" xmlns="http://www.w3.org/2000/svg"
 width="236.000000pt" height="248.000000pt" viewBox="0 0 236.000000 248.000000"
 preserveAspectRatio="xMidYMid meet">
<metadata>
Created by potrace 1.11, written by Peter Selinger 2001-2013
</metadata>
<g transform="translate(0.000000,248.000000) scale(0.100000,-0.100000)"
fill="#000000" stroke="none">
<path d="M276 2161 c-5 -8 713 -1213 738 -1239 13 -13 28 -5 271 153 61 39
235 151 388 249 152 98 277 182 277 187 0 16 -5 24 -15 25 -5 1 -345 131 -755
289 -911 351 -898 346 -904 336z m840 -345 l591 -228 -5 -47 c-3 -34 2 -61 16
-94 l20 -45 -275 -176 c-151 -97 -279 -174 -283 -171 -5 3 -23 30 -40 61 l-32
55 -27 -17 c-79 -52 -125 -84 -118 -84 4 0 38 20 74 45 l67 44 33 -55 c18 -30
33 -58 33 -62 -1 -4 -31 -26 -68 -49 -51 -32 -70 -39 -78 -30 -8 9 -666 1103
-691 1149 -2 4 41 -10 94 -31 54 -21 364 -140 689 -265z m707 -272 c42 -16 77
-31 77 -34 0 -5 -130 -89 -151 -98 -11 -5 -39 77 -39 117 0 40 7 54 24 48 6
-2 46 -17 89 -33z"/>
</g>
</svg>
