<?xml version="1.0" standalone="no"?>
<!DOCTYPE svg PUBLIC "-//W3C//DTD SVG 20010904//EN"
 "http://www.w3.org/TR/2001/REC-SVG-20010904/DTD/svg10.dtd">
<svg version="1.0" xmlns="http://www.w3.org/2000/svg"
 width="184.000000pt" height="187.000000pt" viewBox="0 0 184.000000 187.000000"
 preserveAspectRatio="xMidYMid meet">
<metadata>
Created by potrace 1.11, written by Peter Selinger 2001-2013
</metadata>
<g transform="translate(0.000000,187.000000) scale(0.100000,-0.100000)"
fill="#000000" stroke="none">
<path d="M862 1557 c2 -7 -126 -249 -285 -538 -158 -289 -287 -531 -287 -537
0 -9 138 -12 575 -12 442 0 575 3 575 12 0 19 -562 1088 -572 1088 -5 0 -8 -6
-6 -13z m271 -514 c140 -269 262 -503 271 -520 l17 -33 -107 0 -106 0 7 37 c9
47 40 111 72 145 21 22 23 26 7 24 -22 -3 -93 -138 -94 -178 l0 -28 -446 0
-445 0 53 98 c113 210 513 941 515 942 0 0 116 -219 256 -487z"/>
</g>
</svg>
