<?xml version="1.0" standalone="no"?>
<!DOCTYPE svg PUBLIC "-//W3C//DTD SVG 20010904//EN"
 "http://www.w3.org/TR/2001/REC-SVG-20010904/DTD/svg10.dtd">
<svg version="1.0" xmlns="http://www.w3.org/2000/svg"
 width="274.000000pt" height="206.000000pt" viewBox="0 0 274.000000 206.000000"
 preserveAspectRatio="xMidYMid meet">
<metadata>
Created by potrace 1.11, written by Peter Selinger 2001-2013
</metadata>
<g transform="translate(0.000000,206.000000) scale(0.100000,-0.100000)"
fill="#000000" stroke="none">
<path d="M1268 1137 c-538 -304 -978 -558 -978 -564 0 -10 206 -13 995 -13
l995 0 0 565 c0 532 -1 565 -17 565 -10 -1 -458 -249 -995 -553z m992 43 l0
-490 -40 0 -40 0 0 -55 0 -55 -813 0 -813 0 -18 57 c-9 32 -14 59 -9 61 4 1
393 221 863 487 470 266 858 484 863 485 4 0 7 -220 7 -490z"/>
</g>
</svg>
