<?xml version="1.0" standalone="no"?>
<!DOCTYPE svg PUBLIC "-//W3C//DTD SVG 20010904//EN"
 "http://www.w3.org/TR/2001/REC-SVG-20010904/DTD/svg10.dtd">
<svg version="1.0" xmlns="http://www.w3.org/2000/svg"
 width="337.000000pt" height="224.000000pt" viewBox="0 0 337.000000 224.000000"
 preserveAspectRatio="xMidYMid meet">
<metadata>
Created by potrace 1.11, written by Peter Selinger 2001-2013
</metadata>
<g transform="translate(0.000000,224.000000) scale(0.100000,-0.100000)"
fill="#000000" stroke="none">
<path d="M3202 2038 c-6 -6 -12 -17 -12 -23 0 -11 -629 -323 -661 -329 -8 -1
-28 -11 -45 -22 -17 -10 -529 -260 -1137 -554 -609 -294 -1106 -541 -1107
-548 0 -10 169 -12 827 -10 l828 3 314 545 314 545 340 165 c187 90 348 164
360 165 28 0 45 30 31 53 -14 22 -36 26 -52 10z m-749 -452 c-10 -18 -126
-221 -258 -449 l-240 -415 -50 -7 c-90 -11 -123 -25 -197 -80 l-73 -55 -542 0
-543 0 0 34 c0 20 -7 39 -17 47 -15 11 -16 11 -6 -1 7 -8 13 -29 13 -47 l0
-33 -102 0 c-56 0 -99 2 -97 5 4 3 2117 1032 2127 1034 1 1 -6 -14 -15 -33z
m-541 -941 l-37 -65 -109 0 c-123 0 -124 1 -30 66 50 35 129 61 191 63 21 1
20 -2 -15 -64z"/>
</g>
</svg>
